<svg width="49" height="48" viewBox="0 0 49 48" fill="none" xmlns="http://www.w3.org/2000/svg">
<mask id="mask0_1_239" style="mask-type:alpha" maskUnits="userSpaceOnUse" x="0" y="0" width="49" height="48">
<rect x="0.5" width="48" height="48" fill="#D9D9D9"/>
</mask>
<g mask="url(#mask0_1_239)">
<path d="M6.5 44V42.85C6.5 42.05 6.71667 41.3167 7.15 40.65C7.58333 39.9833 8.18333 39.4833 8.95 39.15C9.81667 38.7833 10.7083 38.5 11.625 38.3C12.5417 38.1 13.5 38 14.5 38C15.5 38 16.4583 38.1 17.375 38.3C18.2917 38.5 19.1833 38.7833 20.05 39.15C20.8167 39.4833 21.4167 39.9833 21.85 40.65C22.2833 41.3167 22.5 42.05 22.5 42.85V44H6.5ZM26.5 44V42.85C26.5 42.05 26.7167 41.3167 27.15 40.65C27.5833 39.9833 28.1833 39.4833 28.95 39.15C29.8167 38.7833 30.7083 38.5 31.625 38.3C32.5417 38.1 33.5 38 34.5 38C35.5 38 36.4583 38.1 37.375 38.3C38.2917 38.5 39.1833 38.7833 40.05 39.15C40.8167 39.4833 41.4167 39.9833 41.85 40.65C42.2833 41.3167 42.5 42.05 42.5 42.85V44H26.5ZM14.5 36C13.4 36 12.4583 35.6083 11.675 34.825C10.8917 34.0417 10.5 33.1 10.5 32C10.5 30.9 10.8917 29.9583 11.675 29.175C12.4583 28.3917 13.4 28 14.5 28C15.6 28 16.5417 28.3917 17.325 29.175C18.1083 29.9583 18.5 30.9 18.5 32C18.5 33.1 18.1083 34.0417 17.325 34.825C16.5417 35.6083 15.6 36 14.5 36ZM34.5 36C33.4 36 32.4583 35.6083 31.675 34.825C30.8917 34.0417 30.5 33.1 30.5 32C30.5 30.9 30.8917 29.9583 31.675 29.175C32.4583 28.3917 33.4 28 34.5 28C35.6 28 36.5417 28.3917 37.325 29.175C38.1083 29.9583 38.5 30.9 38.5 32C38.5 33.1 38.1083 34.0417 37.325 34.825C36.5417 35.6083 35.6 36 34.5 36ZM26 26.25L27.35 24.9C27.65 24.6333 28 24.5 28.4 24.5C28.8 24.5 29.15 24.65 29.45 24.95C29.75 25.25 29.9 25.6 29.9 26C29.9 26.4 29.75 26.75 29.45 27.05L25.9 30.6C25.5 31 25.0333 31.2 24.5 31.2C23.9667 31.2 23.5 31 23.1 30.6L19.55 27.05C19.25 26.75 19.1 26.4 19.1 26C19.1 25.6 19.25 25.25 19.55 24.95C19.85 24.65 20.2 24.5083 20.6 24.525C21 24.5417 21.35 24.6833 21.65 24.95L23 26.25V23.5C23 23.0667 23.1417 22.7083 23.425 22.425C23.7083 22.1417 24.0667 22 24.5 22C24.9333 22 25.2917 22.1417 25.575 22.425C25.8583 22.7083 26 23.0667 26 23.5V26.25ZM4.5 20V18.85C4.5 18.05 4.71667 17.3167 5.15 16.65C5.58333 15.9833 6.18333 15.4833 6.95 15.15C7.81667 14.7833 8.70833 14.5 9.625 14.3C10.5417 14.1 11.5 14 12.5 14C13.1667 14 13.825 14.05 14.475 14.15C15.125 14.25 15.75 14.3833 16.35 14.55C15.7833 15.1167 15.3333 15.7667 15 16.5C14.6667 17.2333 14.5 18.0167 14.5 18.85V20H4.5ZM16.5 20V18.85C16.5 18.05 16.7167 17.3167 17.15 16.65C17.5833 15.9833 18.1833 15.4833 18.95 15.15C19.8167 14.7833 20.7083 14.5 21.625 14.3C22.5417 14.1 23.5 14 24.5 14C25.5 14 26.4583 14.1 27.375 14.3C28.2917 14.5 29.1833 14.7833 30.05 15.15C30.8167 15.4833 31.4167 15.9833 31.85 16.65C32.2833 17.3167 32.5 18.05 32.5 18.85V20H16.5ZM34.5 20V18.85C34.5 18.0167 34.3333 17.2333 34 16.5C33.6667 15.7667 33.2167 15.1167 32.65 14.55C33.25 14.3833 33.875 14.25 34.525 14.15C35.175 14.05 35.8333 14 36.5 14C37.5 14 38.4583 14.1 39.375 14.3C40.2917 14.5 41.1833 14.7833 42.05 15.15C42.8167 15.4833 43.4167 15.9833 43.85 16.65C44.2833 17.3167 44.5 18.05 44.5 18.85V20H34.5ZM12.5 12C11.4 12 10.4583 11.6083 9.675 10.825C8.89167 10.0417 8.5 9.1 8.5 8C8.5 6.9 8.89167 5.95833 9.675 5.175C10.4583 4.39167 11.4 4 12.5 4C13.6 4 14.5417 4.39167 15.325 5.175C16.1083 5.95833 16.5 6.9 16.5 8C16.5 9.1 16.1083 10.0417 15.325 10.825C14.5417 11.6083 13.6 12 12.5 12ZM24.5 12C23.4 12 22.4583 11.6083 21.675 10.825C20.8917 10.0417 20.5 9.1 20.5 8C20.5 6.9 20.8917 5.95833 21.675 5.175C22.4583 4.39167 23.4 4 24.5 4C25.6 4 26.5417 4.39167 27.325 5.175C28.1083 5.95833 28.5 6.9 28.5 8C28.5 9.1 28.1083 10.0417 27.325 10.825C26.5417 11.6083 25.6 12 24.5 12ZM36.5 12C35.4 12 34.4583 11.6083 33.675 10.825C32.8917 10.0417 32.5 9.1 32.5 8C32.5 6.9 32.8917 5.95833 33.675 5.175C34.4583 4.39167 35.4 4 36.5 4C37.6 4 38.5417 4.39167 39.325 5.175C40.1083 5.95833 40.5 6.9 40.5 8C40.5 9.1 40.1083 10.0417 39.325 10.825C38.5417 11.6083 37.6 12 36.5 12Z" fill="#105016"/>
</g>
</svg>
