<svg width="49" height="48" viewBox="0 0 49 48" fill="none" xmlns="http://www.w3.org/2000/svg">
    <mask id="mask0_1_248" style="mask-type:alpha" maskUnits="userSpaceOnUse" x="0" y="0" width="49" height="48">
        <rect x="0.5" width="48" height="48" fill="#D9D9D9"/>
    </mask>
    <g mask="url(#mask0_1_248)">
        <path d="M14.5 42V36H4.15C3.35 36 2.76667 35.65 2.4 34.95C2.03334 34.25 2.06667 33.5667 2.5 32.9L8.2 24C7.43334 24 6.85834 23.6583 6.475 22.975C6.09167 22.2917 6.13334 21.6167 6.6 20.95L16.85 6.35C17.25 5.78333 17.8 5.5 18.5 5.5C19.2 5.5 19.75 5.78333 20.15 6.35L24.5 12.6L28.85 6.35C29.25 5.78333 29.8 5.5 30.5 5.5C31.2 5.5 31.75 5.78333 32.15 6.35L42.4 20.95C42.8667 21.6167 42.9083 22.2917 42.525 22.975C42.1417 23.6583 41.5667 24 40.8 24L46.5 32.9C46.9333 33.5667 46.9667 34.25 46.6 34.95C46.2333 35.65 45.65 36 44.85 36H34.5V42C34.5 42.5667 34.3083 43.0417 33.925 43.425C33.5417 43.8083 33.0667 44 32.5 44H28.5C27.9333 44 27.4583 43.8083 27.075 43.425C26.6917 43.0417 26.5 42.5667 26.5 42V36H22.5V42C22.5 42.5667 22.3083 43.0417 21.925 43.425C21.5417 43.8083 21.0667 44 20.5 44H16.5C15.9333 44 15.4583 43.8083 15.075 43.425C14.6917 43.0417 14.5 42.5667 14.5 42ZM33.95 32H41.2L33.45 20H36.8L30.5 11L26.95 16.05L30.4 20.95C30.8667 21.6167 30.9083 22.2917 30.525 22.975C30.1417 23.6583 29.5667 24 28.8 24L33.95 32ZM7.8 32H29.2L21.45 20H24.8L18.5 11L12.2 20H15.55L7.8 32ZM7.8 32H15.55H12.2H24.8H21.45H29.2H7.8ZM33.95 32H28.8H32.5H26.95H36.8H33.45H41.2H33.95Z" fill="#105016"/>
    </g>
</svg>