<svg width="315" height="48" viewBox="0 0 315 48" fill="none" xmlns="http://www.w3.org/2000/svg">
<path d="M28.2134 10.4565C31.7783 5.91903 41.935 4.97485 41.935 4.97485L42.3032 5.34682L42.6714 5.71879C42.6714 5.71879 41.7302 16.008 37.0504 19.3839C33.2341 22.1368 28.2458 25.1279 25.1962 21.5442C22.288 18.1267 25.4411 13.9852 28.2134 10.4565Z" fill="#21CA32"/>
<path d="M42.3032 5.34682L42.6714 5.71879C42.6714 5.71879 41.7302 16.008 37.0504 19.3839C33.2341 22.1368 28.2458 25.1279 25.1962 21.5442C22.288 18.1267 25.4411 13.9852 28.2134 10.4565C31.7783 5.91903 41.935 4.97485 41.935 4.97485L42.3032 5.34682ZM42.3032 5.34682C42.3032 5.34682 35.2752 12.3036 30.772 16.7613M30.772 16.7613C30.772 16.7613 35.0665 15.2049 37.8182 14.2077M30.772 16.7613L33.3997 9.74401" stroke="#003F06" stroke-width="0.5"/>
<path d="M19.6108 38.2466C16.0459 42.7841 5.88924 43.7283 5.88924 43.7283L5.52103 43.3563L5.15283 42.9843C5.15283 42.9843 6.09399 32.6951 10.7738 29.3192C14.5901 26.5663 19.5785 23.5753 22.628 27.1589C25.5363 30.5765 22.3831 34.7179 19.6108 38.2466Z" fill="#21CA32"/>
<path d="M5.52103 43.3563L5.15283 42.9843C5.15283 42.9843 6.09399 32.6951 10.7738 29.3192C14.5901 26.5663 19.5785 23.5753 22.628 27.1589C25.5363 30.5765 22.3831 34.7179 19.6108 38.2466C16.0459 42.7841 5.88924 43.7283 5.88924 43.7283L5.52103 43.3563ZM5.52103 43.3563C5.52103 43.3563 12.549 36.3995 17.0522 31.9419M17.0522 31.9419C17.0522 31.9419 12.7577 33.4982 10.006 34.4954M17.0522 31.9419L14.4245 38.9591" stroke="#003F06" stroke-width="0.5"/>
<path d="M38.0884 29.4321C42.6259 32.997 43.5701 43.1537 43.5701 43.1537L43.1981 43.5219L42.8261 43.8901C42.8261 43.8901 32.5369 42.949 29.161 38.2691C26.4081 34.4528 23.4171 29.4645 27.0007 26.4149C30.4183 23.5067 34.5597 26.6598 38.0884 29.4321Z" fill="#21CA32"/>
<path d="M43.1981 43.5219L42.8261 43.8901C42.8261 43.8901 32.5369 42.949 29.161 38.2691C26.4081 34.4528 23.4171 29.4645 27.0007 26.4149C30.4183 23.5067 34.5597 26.6598 38.0884 29.4321C42.6259 32.997 43.5701 43.1537 43.5701 43.1537L43.1981 43.5219ZM43.1981 43.5219C43.1981 43.5219 36.2413 36.494 31.7837 31.9908M31.7837 31.9908C31.7837 31.9908 33.34 36.2852 34.3372 39.0369M31.7837 31.9908L38.8009 34.6185" stroke="#003F06" stroke-width="0.5"/>
<path d="M9.61279 18.5679C5.07528 15.003 4.1311 4.84627 4.1311 4.84627L4.50307 4.47806L4.87504 4.10986C4.87504 4.10986 15.1643 5.05102 18.5402 9.73088C21.2931 13.5472 24.2841 18.5355 20.7004 21.5851C17.2829 24.4933 13.1415 21.3402 9.61279 18.5679Z" fill="#21CA32"/>
<path d="M4.50307 4.47806L4.87504 4.10986C4.87504 4.10986 15.1643 5.05102 18.5402 9.73088C21.2931 13.5472 24.2841 18.5355 20.7004 21.5851C17.2829 24.4933 13.1415 21.3402 9.61279 18.5679C5.07528 15.003 4.1311 4.84627 4.1311 4.84627L4.50307 4.47806ZM4.50307 4.47806L15.9175 16.0092M15.9175 16.0092L13.3639 8.96306M15.9175 16.0092L8.90026 13.3815" stroke="#003F06" stroke-width="0.5"/>
<path d="M71.3612 31.32C70.0012 31.32 68.8078 31.0267 67.7812 30.44C66.7545 29.8533 65.9612 29.0333 65.4012 27.98C64.8412 26.9133 64.5612 25.6733 64.5612 24.26C64.5612 23.3267 64.7012 22.4133 64.9812 21.52C65.2745 20.6267 65.7078 19.8133 66.2812 19.08C66.8678 18.3467 67.5945 17.7667 68.4612 17.34C69.3412 16.9 70.3612 16.68 71.5212 16.68C71.9612 16.68 72.4212 16.72 72.9012 16.8C73.3812 16.88 73.8478 17 74.3012 17.16C74.7678 17.32 75.1878 17.5133 75.5612 17.74L75.4812 16.82H76.7212V21.42H75.8012C75.7345 20.62 75.5078 19.9467 75.1212 19.4C74.7478 18.84 74.2612 18.42 73.6612 18.14C73.0745 17.8467 72.4212 17.7 71.7012 17.7C70.9945 17.7 70.3478 17.86 69.7612 18.18C69.1878 18.4867 68.6878 18.92 68.2612 19.48C67.8345 20.0267 67.5012 20.6733 67.2612 21.42C67.0345 22.1667 66.9212 22.9667 66.9212 23.82C66.9212 25.0467 67.1212 26.14 67.5212 27.1C67.9345 28.0467 68.5145 28.7933 69.2612 29.34C70.0078 29.8867 70.8812 30.16 71.8812 30.16C72.2012 30.16 72.5478 30.1333 72.9212 30.08C73.3078 30.0133 73.6878 29.92 74.0612 29.8C74.4478 29.6667 74.7945 29.5 75.1012 29.3V27.06C75.1012 26.7267 75.1012 26.4 75.1012 26.08C75.1145 25.7467 75.1212 25.44 75.1212 25.16C74.9078 25.1733 74.6678 25.1867 74.4012 25.2C74.1345 25.2133 73.9012 25.2267 73.7012 25.24V24.14H78.4812V25.02C78.1612 25.02 77.9012 25.0933 77.7012 25.24C77.5145 25.3867 77.3745 25.5733 77.2812 25.8C77.2012 26.0133 77.1478 26.2467 77.1212 26.5C77.0945 26.74 77.0812 26.9667 77.0812 27.18V30.3H76.5612C76.2812 30.3 75.9545 30.3467 75.5812 30.44C75.2078 30.52 74.7878 30.6467 74.3212 30.82C73.9078 30.9667 73.4345 31.0867 72.9012 31.18C72.3678 31.2733 71.8545 31.32 71.3612 31.32ZM79.6979 30.16C80.0979 30.16 80.3779 30.0667 80.5379 29.88C80.6979 29.6933 80.7912 29.4333 80.8179 29.1C80.8579 28.7667 80.8779 28.38 80.8779 27.94V23.78C80.8779 23.5667 80.8779 23.34 80.8779 23.1C80.8912 22.8467 80.9179 22.6 80.9579 22.36C80.7312 22.3733 80.4912 22.3867 80.2379 22.4C79.9846 22.4 79.7512 22.4067 79.5379 22.42V21.36H80.2179C80.7779 21.36 81.2046 21.3 81.4979 21.18C81.7912 21.06 82.0046 20.9333 82.1379 20.8H82.8579C82.8846 20.9867 82.9046 21.2467 82.9179 21.58C82.9312 21.9133 82.9446 22.2867 82.9579 22.7C83.2112 22.3267 83.5046 21.9933 83.8379 21.7C84.1712 21.3933 84.5312 21.1467 84.9179 20.96C85.3179 20.7733 85.7312 20.68 86.1579 20.68C86.5712 20.68 86.9246 20.7933 87.2179 21.02C87.5246 21.2333 87.6779 21.5867 87.6779 22.08C87.6779 22.2133 87.6379 22.3667 87.5579 22.54C87.4912 22.7133 87.3712 22.8667 87.1979 23C87.0379 23.12 86.8179 23.18 86.5379 23.18C86.2579 23.1667 86.0112 23.06 85.7979 22.86C85.5979 22.66 85.5046 22.3867 85.5179 22.04C85.1979 22.04 84.8779 22.14 84.5579 22.34C84.2379 22.5267 83.9379 22.78 83.6579 23.1C83.3912 23.42 83.1646 23.7667 82.9779 24.14V28.52C82.9779 28.76 82.9712 29.0067 82.9579 29.26C82.9579 29.5 82.9379 29.7467 82.8979 30C83.1112 29.9867 83.3312 29.98 83.5579 29.98C83.7846 29.9667 83.9912 29.9533 84.1779 29.94V31H79.6979V30.16ZM93.3455 31.32C92.4122 31.32 91.5722 31.1067 90.8255 30.68C90.0922 30.24 89.5122 29.6267 89.0855 28.84C88.6589 28.04 88.4455 27.1 88.4455 26.02C88.4455 25.0867 88.6522 24.2133 89.0655 23.4C89.4922 22.5867 90.0855 21.9333 90.8455 21.44C91.6055 20.9333 92.4855 20.68 93.4855 20.68C94.0455 20.68 94.5722 20.7667 95.0655 20.94C95.5722 21.1133 96.0189 21.3867 96.4055 21.76C96.8055 22.12 97.1189 22.5933 97.3455 23.18C97.5722 23.7533 97.6855 24.4533 97.6855 25.28L90.8055 25.4C90.8055 26.3067 90.9055 27.1133 91.1055 27.82C91.3189 28.5267 91.6589 29.0733 92.1255 29.46C92.5922 29.8467 93.1989 30.04 93.9455 30.04C94.3055 30.04 94.6855 29.98 95.0855 29.86C95.4989 29.7267 95.8855 29.54 96.2455 29.3C96.6189 29.06 96.9322 28.7733 97.1855 28.44L97.8055 28.98C97.4055 29.58 96.9455 30.0533 96.4255 30.4C95.9055 30.7333 95.3722 30.9667 94.8255 31.1C94.2922 31.2467 93.7989 31.32 93.3455 31.32ZM90.8855 24.36H95.5055C95.5055 23.8533 95.4322 23.4 95.2855 23C95.1522 22.5867 94.9389 22.26 94.6455 22.02C94.3522 21.78 93.9789 21.66 93.5255 21.66C92.8189 21.66 92.2389 21.8867 91.7855 22.34C91.3322 22.78 91.0322 23.4533 90.8855 24.36ZM104.107 31.32C103.174 31.32 102.334 31.1067 101.587 30.68C100.854 30.24 100.274 29.6267 99.8473 28.84C99.4206 28.04 99.2073 27.1 99.2073 26.02C99.2073 25.0867 99.4139 24.2133 99.8273 23.4C100.254 22.5867 100.847 21.9333 101.607 21.44C102.367 20.9333 103.247 20.68 104.247 20.68C104.807 20.68 105.334 20.7667 105.827 20.94C106.334 21.1133 106.781 21.3867 107.167 21.76C107.567 22.12 107.881 22.5933 108.107 23.18C108.334 23.7533 108.447 24.4533 108.447 25.28L101.567 25.4C101.567 26.3067 101.667 27.1133 101.867 27.82C102.081 28.5267 102.421 29.0733 102.887 29.46C103.354 29.8467 103.961 30.04 104.707 30.04C105.067 30.04 105.447 29.98 105.847 29.86C106.261 29.7267 106.647 29.54 107.007 29.3C107.381 29.06 107.694 28.7733 107.947 28.44L108.567 28.98C108.167 29.58 107.707 30.0533 107.187 30.4C106.667 30.7333 106.134 30.9667 105.587 31.1C105.054 31.2467 104.561 31.32 104.107 31.32ZM101.647 24.36H106.267C106.267 23.8533 106.194 23.4 106.047 23C105.914 22.5867 105.701 22.26 105.407 22.02C105.114 21.78 104.741 21.66 104.287 21.66C103.581 21.66 103.001 21.8867 102.547 22.34C102.094 22.78 101.794 23.4533 101.647 24.36ZM110.128 31V30.16C110.528 30.16 110.808 30.0667 110.968 29.88C111.128 29.6933 111.221 29.4333 111.248 29.1C111.288 28.7667 111.308 28.38 111.308 27.94L111.328 23.78C111.328 23.5667 111.328 23.34 111.328 23.1C111.341 22.8467 111.368 22.6 111.408 22.36C111.168 22.3733 110.921 22.3867 110.668 22.4C110.428 22.4 110.201 22.4067 109.988 22.42V21.36C110.588 21.36 111.054 21.3333 111.388 21.28C111.734 21.2133 111.994 21.14 112.168 21.06C112.354 20.98 112.494 20.8933 112.588 20.8H113.308C113.321 20.92 113.328 21.0333 113.328 21.14C113.341 21.2467 113.348 21.36 113.348 21.48C113.361 21.6 113.374 21.7533 113.388 21.94C113.681 21.7 114.001 21.4867 114.348 21.3C114.694 21.1133 115.054 20.9667 115.428 20.86C115.814 20.74 116.181 20.68 116.528 20.68C117.714 20.68 118.568 21.04 119.088 21.76C119.621 22.48 119.888 23.6067 119.888 25.14V28.52C119.888 28.76 119.881 29.0067 119.868 29.26C119.854 29.5 119.834 29.7467 119.808 30C120.021 29.9867 120.234 29.98 120.448 29.98C120.674 29.9667 120.881 29.9533 121.068 29.94V31H116.608V30.16C117.008 30.16 117.288 30.0667 117.448 29.88C117.608 29.6933 117.701 29.4333 117.728 29.1C117.768 28.7667 117.788 28.38 117.788 27.94V25.14C117.774 24.0867 117.601 23.2933 117.268 22.76C116.948 22.2267 116.428 21.9667 115.708 21.98C115.281 21.98 114.861 22.0867 114.448 22.3C114.034 22.5133 113.688 22.7733 113.408 23.08C113.408 23.2133 113.408 23.36 113.408 23.52C113.408 23.6667 113.408 23.82 113.408 23.98V28.52C113.408 28.76 113.401 29.0067 113.388 29.26C113.374 29.5 113.354 29.7467 113.328 30C113.541 29.9867 113.754 29.98 113.968 29.98C114.194 29.9667 114.401 29.9533 114.588 29.94V31H110.128ZM127.271 31.32C126.338 31.32 125.498 31.1067 124.751 30.68C124.018 30.24 123.438 29.6267 123.011 28.84C122.585 28.04 122.371 27.1 122.371 26.02C122.371 25.0867 122.578 24.2133 122.991 23.4C123.418 22.5867 124.011 21.9333 124.771 21.44C125.531 20.9333 126.411 20.68 127.411 20.68C127.971 20.68 128.498 20.7667 128.991 20.94C129.498 21.1133 129.945 21.3867 130.331 21.76C130.731 22.12 131.045 22.5933 131.271 23.18C131.498 23.7533 131.611 24.4533 131.611 25.28L124.731 25.4C124.731 26.3067 124.831 27.1133 125.031 27.82C125.245 28.5267 125.585 29.0733 126.051 29.46C126.518 29.8467 127.125 30.04 127.871 30.04C128.231 30.04 128.611 29.98 129.011 29.86C129.425 29.7267 129.811 29.54 130.171 29.3C130.545 29.06 130.858 28.7733 131.111 28.44L131.731 28.98C131.331 29.58 130.871 30.0533 130.351 30.4C129.831 30.7333 129.298 30.9667 128.751 31.1C128.218 31.2467 127.725 31.32 127.271 31.32ZM124.811 24.36H129.431C129.431 23.8533 129.358 23.4 129.211 23C129.078 22.5867 128.865 22.26 128.571 22.02C128.278 21.78 127.905 21.66 127.451 21.66C126.745 21.66 126.165 21.8867 125.711 22.34C125.258 22.78 124.958 23.4533 124.811 24.36ZM133.292 30.16C133.692 30.16 133.972 30.0667 134.132 29.88C134.292 29.6933 134.385 29.4333 134.412 29.1C134.452 28.7667 134.472 28.38 134.472 27.94V23.78C134.472 23.5667 134.472 23.34 134.472 23.1C134.485 22.8467 134.512 22.6 134.552 22.36C134.325 22.3733 134.085 22.3867 133.832 22.4C133.578 22.4 133.345 22.4067 133.132 22.42V21.36H133.812C134.372 21.36 134.798 21.3 135.092 21.18C135.385 21.06 135.598 20.9333 135.732 20.8H136.452C136.478 20.9867 136.498 21.2467 136.512 21.58C136.525 21.9133 136.538 22.2867 136.552 22.7C136.805 22.3267 137.098 21.9933 137.432 21.7C137.765 21.3933 138.125 21.1467 138.512 20.96C138.912 20.7733 139.325 20.68 139.752 20.68C140.165 20.68 140.518 20.7933 140.812 21.02C141.118 21.2333 141.272 21.5867 141.272 22.08C141.272 22.2133 141.232 22.3667 141.152 22.54C141.085 22.7133 140.965 22.8667 140.792 23C140.632 23.12 140.412 23.18 140.132 23.18C139.852 23.1667 139.605 23.06 139.392 22.86C139.192 22.66 139.098 22.3867 139.112 22.04C138.792 22.04 138.472 22.14 138.152 22.34C137.832 22.5267 137.532 22.78 137.252 23.1C136.985 23.42 136.758 23.7667 136.572 24.14V28.52C136.572 28.76 136.565 29.0067 136.552 29.26C136.552 29.5 136.532 29.7467 136.492 30C136.705 29.9867 136.925 29.98 137.152 29.98C137.378 29.9667 137.585 29.9533 137.772 29.94V31H133.292V30.16ZM154.65 25.94C154.65 25.3667 154.563 24.9533 154.39 24.7C154.23 24.4467 153.983 24.2933 153.65 24.24C153.317 24.1733 152.903 24.1533 152.41 24.18L151.25 24.22V28.38C151.25 28.74 151.243 29.06 151.23 29.34C151.23 29.6067 151.217 29.8267 151.19 30L154.63 29.96C155.15 29.9467 155.617 29.8533 156.03 29.68C156.443 29.4933 156.77 29.18 157.01 28.74C157.25 28.3 157.37 27.7 157.37 26.94H158.25L158.13 31H147.73V30.12C148.17 30.0933 148.483 30 148.67 29.84C148.87 29.68 148.997 29.44 149.05 29.12C149.103 28.8 149.13 28.3933 149.13 27.9V19.58C149.13 19.2867 149.137 19.0067 149.15 18.74C149.163 18.46 149.177 18.22 149.19 18.02C148.963 18.0333 148.717 18.0467 148.45 18.06C148.183 18.0733 147.943 18.0867 147.73 18.1V17H157.49L157.59 20.62H156.71C156.71 19.86 156.583 19.28 156.33 18.88C156.09 18.48 155.77 18.2133 155.37 18.08C154.983 17.9467 154.563 17.8867 154.11 17.9L152.71 17.94C152.297 17.94 151.983 18.0133 151.77 18.16C151.557 18.2933 151.417 18.52 151.35 18.84C151.283 19.1467 151.25 19.5667 151.25 20.1V23.24H154.55L154.43 21.52H155.53V25.94H154.65ZM165.891 31C165.864 30.7867 165.844 30.6 165.831 30.44C165.818 30.28 165.798 30.1133 165.771 29.94C165.318 30.3933 164.831 30.74 164.311 30.98C163.791 31.2067 163.251 31.32 162.691 31.32C161.731 31.32 161.004 31.0867 160.511 30.62C160.031 30.14 159.791 29.5467 159.791 28.84C159.791 28.2267 159.971 27.6933 160.331 27.24C160.691 26.7867 161.164 26.42 161.751 26.14C162.338 25.8467 162.978 25.6333 163.671 25.5C164.364 25.3533 165.044 25.28 165.711 25.28V24.1C165.711 23.6733 165.671 23.28 165.591 22.92C165.511 22.5467 165.344 22.2467 165.091 22.02C164.851 21.78 164.471 21.66 163.951 21.66C163.604 21.6467 163.258 21.7133 162.911 21.86C162.564 21.9933 162.298 22.22 162.111 22.54C162.218 22.6467 162.284 22.7733 162.311 22.92C162.351 23.0533 162.371 23.18 162.371 23.3C162.371 23.4867 162.291 23.7 162.131 23.94C161.971 24.1667 161.698 24.2733 161.311 24.26C160.991 24.26 160.744 24.1533 160.571 23.94C160.411 23.7133 160.331 23.4533 160.331 23.16C160.331 22.68 160.504 22.2533 160.851 21.88C161.211 21.5067 161.698 21.2133 162.311 21C162.924 20.7867 163.611 20.68 164.371 20.68C165.518 20.68 166.371 20.98 166.931 21.58C167.504 22.18 167.791 23.1267 167.791 24.42C167.791 24.9 167.791 25.36 167.791 25.8C167.791 26.24 167.784 26.68 167.771 27.12C167.771 27.56 167.771 28.0267 167.771 28.52C167.771 28.72 167.764 28.9467 167.751 29.2C167.738 29.4533 167.718 29.72 167.691 30C167.918 29.9867 168.151 29.9733 168.391 29.96C168.631 29.9467 168.858 29.94 169.071 29.94V31H165.891ZM165.711 26.2C165.284 26.2267 164.844 26.2867 164.391 26.38C163.951 26.4733 163.551 26.6133 163.191 26.8C162.831 26.9867 162.538 27.2267 162.311 27.52C162.098 27.8133 161.991 28.1667 161.991 28.58C162.018 29.0333 162.164 29.3667 162.431 29.58C162.711 29.7933 163.038 29.9 163.411 29.9C163.878 29.9 164.291 29.8133 164.651 29.64C165.011 29.4533 165.364 29.2 165.711 28.88C165.698 28.7333 165.691 28.5867 165.691 28.44C165.691 28.28 165.691 28.1133 165.691 27.94C165.691 27.82 165.691 27.6 165.691 27.28C165.704 26.9467 165.711 26.5867 165.711 26.2ZM170.362 30.16C170.762 30.16 171.042 30.0667 171.202 29.88C171.362 29.6933 171.455 29.4333 171.482 29.1C171.522 28.7667 171.542 28.38 171.542 27.94V23.78C171.542 23.5667 171.542 23.34 171.542 23.1C171.555 22.8467 171.582 22.6 171.622 22.36C171.395 22.3733 171.155 22.3867 170.902 22.4C170.649 22.4 170.415 22.4067 170.202 22.42V21.36H170.882C171.442 21.36 171.869 21.3 172.162 21.18C172.455 21.06 172.669 20.9333 172.802 20.8H173.522C173.549 20.9867 173.569 21.2467 173.582 21.58C173.595 21.9133 173.609 22.2867 173.622 22.7C173.875 22.3267 174.169 21.9933 174.502 21.7C174.835 21.3933 175.195 21.1467 175.582 20.96C175.982 20.7733 176.395 20.68 176.822 20.68C177.235 20.68 177.589 20.7933 177.882 21.02C178.189 21.2333 178.342 21.5867 178.342 22.08C178.342 22.2133 178.302 22.3667 178.222 22.54C178.155 22.7133 178.035 22.8667 177.862 23C177.702 23.12 177.482 23.18 177.202 23.18C176.922 23.1667 176.675 23.06 176.462 22.86C176.262 22.66 176.169 22.3867 176.182 22.04C175.862 22.04 175.542 22.14 175.222 22.34C174.902 22.5267 174.602 22.78 174.322 23.1C174.055 23.42 173.829 23.7667 173.642 24.14V28.52C173.642 28.76 173.635 29.0067 173.622 29.26C173.622 29.5 173.602 29.7467 173.562 30C173.775 29.9867 173.995 29.98 174.222 29.98C174.449 29.9667 174.655 29.9533 174.842 29.94V31H170.362V30.16ZM183.264 31.32C182.931 31.32 182.597 31.2733 182.264 31.18C181.931 31.1 181.617 30.9333 181.324 30.68C181.044 30.4133 180.824 30.0333 180.664 29.54C180.504 29.0467 180.424 28.3933 180.424 27.58L180.464 22.12H178.984V21C179.344 20.9867 179.711 20.8533 180.084 20.6C180.457 20.3467 180.784 20.0067 181.064 19.58C181.344 19.1533 181.537 18.6933 181.644 18.2H182.584V21H185.664V22.04L182.584 22.08L182.544 27.42C182.544 27.9267 182.584 28.3733 182.664 28.76C182.757 29.1333 182.904 29.4267 183.104 29.64C183.317 29.84 183.604 29.94 183.964 29.94C184.271 29.94 184.584 29.8467 184.904 29.66C185.237 29.4733 185.551 29.1667 185.844 28.74L186.524 29.34C186.204 29.8067 185.884 30.1733 185.564 30.44C185.244 30.7067 184.937 30.9 184.644 31.02C184.351 31.1533 184.084 31.2333 183.844 31.26C183.604 31.3 183.411 31.32 183.264 31.32ZM193.634 30.16C194.034 30.16 194.314 30.0667 194.474 29.88C194.647 29.6933 194.747 29.4333 194.774 29.1C194.814 28.7667 194.834 28.38 194.834 27.94L194.814 25.14C194.814 24.0867 194.647 23.3 194.314 22.78C193.994 22.2467 193.474 21.9867 192.754 22C192.314 22.0133 191.88 22.12 191.454 22.32C191.04 22.52 190.694 22.7733 190.414 23.08V28.52C190.414 28.76 190.407 29.0067 190.394 29.26C190.38 29.5 190.36 29.7467 190.334 30C190.547 29.9867 190.76 29.98 190.974 29.98C191.2 29.9667 191.407 29.9533 191.594 29.94V31H187.134V30.16C187.534 30.16 187.814 30.0667 187.974 29.88C188.134 29.6933 188.234 29.4333 188.274 29.1C188.314 28.7667 188.334 28.38 188.334 27.94V18.9C188.334 18.6733 188.334 18.4467 188.334 18.22C188.347 17.98 188.367 17.7267 188.394 17.46C188.167 17.4733 187.927 17.4867 187.674 17.5C187.42 17.5 187.187 17.5067 186.974 17.52V16.46C187.574 16.46 188.054 16.4333 188.414 16.38C188.774 16.3133 189.047 16.24 189.234 16.16C189.434 16.08 189.58 15.9933 189.674 15.9H190.414V21.94C190.707 21.7 191.034 21.4867 191.394 21.3C191.754 21.1133 192.12 20.9667 192.494 20.86C192.88 20.74 193.24 20.68 193.574 20.68C194.76 20.68 195.607 21.04 196.114 21.76C196.634 22.48 196.9 23.6067 196.914 25.14V28.52C196.914 28.76 196.907 29.0067 196.894 29.26C196.894 29.5 196.874 29.7467 196.834 30C197.047 29.9867 197.267 29.98 197.494 29.98C197.72 29.9667 197.927 29.9533 198.114 29.94V31H193.634V30.16ZM215.776 21.46C215.63 20.26 215.216 19.34 214.536 18.7C213.856 18.0467 212.97 17.7133 211.876 17.7C211.183 17.7 210.543 17.8533 209.956 18.16C209.37 18.4667 208.863 18.9 208.436 19.46C208.01 20.0067 207.676 20.66 207.436 21.42C207.21 22.1667 207.096 22.9867 207.096 23.88C207.096 25.0933 207.31 26.1733 207.736 27.12C208.163 28.0533 208.75 28.78 209.496 29.3C210.256 29.82 211.116 30.08 212.076 30.08C212.93 30.08 213.77 29.88 214.596 29.48C215.436 29.0667 216.13 28.4867 216.676 27.74L217.336 28.3C216.736 29.1267 216.096 29.76 215.416 30.2C214.736 30.64 214.056 30.9333 213.376 31.08C212.71 31.24 212.103 31.32 211.556 31.32C210.556 31.32 209.636 31.14 208.796 30.78C207.956 30.42 207.23 29.92 206.616 29.28C206.016 28.6267 205.55 27.8733 205.216 27.02C204.896 26.1533 204.736 25.22 204.736 24.22C204.736 23.2867 204.883 22.3733 205.176 21.48C205.47 20.5867 205.903 19.78 206.476 19.06C207.05 18.3267 207.77 17.7467 208.636 17.32C209.516 16.8933 210.536 16.68 211.696 16.68C212.376 16.68 213.036 16.7733 213.676 16.96C214.33 17.1467 214.956 17.4333 215.556 17.82L215.456 16.82H216.696V21.46H215.776ZM223.603 31.32C222.656 31.32 221.803 31.1067 221.043 30.68C220.283 30.2533 219.676 29.66 219.223 28.9C218.783 28.1267 218.563 27.24 218.563 26.24C218.563 25.16 218.783 24.2067 219.223 23.38C219.676 22.54 220.283 21.88 221.043 21.4C221.803 20.92 222.649 20.68 223.583 20.68C224.529 20.68 225.383 20.9 226.143 21.34C226.903 21.7667 227.503 22.3667 227.943 23.14C228.396 23.9 228.623 24.78 228.623 25.78C228.623 26.8333 228.403 27.78 227.963 28.62C227.523 29.46 226.923 30.12 226.163 30.6C225.416 31.08 224.563 31.32 223.603 31.32ZM223.743 30.32C224.383 30.3067 224.883 30.1067 225.243 29.72C225.616 29.3333 225.883 28.84 226.043 28.24C226.203 27.6267 226.283 26.9933 226.283 26.34C226.283 25.7667 226.229 25.2067 226.123 24.66C226.029 24.1 225.876 23.5933 225.663 23.14C225.449 22.6867 225.169 22.3267 224.823 22.06C224.476 21.78 224.056 21.6467 223.563 21.66C222.936 21.66 222.423 21.8533 222.023 22.24C221.636 22.6267 221.349 23.1267 221.163 23.74C220.989 24.34 220.903 24.98 220.903 25.66C220.903 26.4467 221.003 27.1933 221.203 27.9C221.403 28.6067 221.709 29.1867 222.123 29.64C222.549 30.0933 223.089 30.32 223.743 30.32ZM230.245 31V30.16C230.645 30.16 230.925 30.0667 231.085 29.88C231.245 29.6933 231.338 29.4333 231.365 29.1C231.405 28.7667 231.425 28.38 231.425 27.94V23.78C231.425 23.5667 231.425 23.34 231.425 23.1C231.438 22.8467 231.465 22.6 231.505 22.36C231.278 22.3733 231.038 22.3867 230.785 22.4C230.531 22.4 230.298 22.4067 230.085 22.42V21.36C230.685 21.36 231.151 21.3333 231.485 21.28C231.831 21.2133 232.091 21.14 232.265 21.06C232.451 20.98 232.591 20.8933 232.685 20.8H233.405C233.431 20.9333 233.445 21.0933 233.445 21.28C233.458 21.4533 233.471 21.64 233.485 21.84C233.898 21.4933 234.365 21.2133 234.885 21C235.418 20.7867 235.931 20.68 236.425 20.68C237.078 20.68 237.618 20.8 238.045 21.04C238.485 21.2667 238.831 21.5933 239.085 22.02C239.551 21.6333 240.078 21.3133 240.665 21.06C241.251 20.8067 241.825 20.68 242.385 20.68C243.518 20.68 244.358 21.02 244.905 21.7C245.451 22.3667 245.718 23.4867 245.705 25.06L245.685 28.52C245.685 28.76 245.678 29.0067 245.665 29.26C245.665 29.5 245.645 29.7467 245.605 30C245.818 29.9867 246.038 29.98 246.265 29.98C246.491 29.9667 246.698 29.9533 246.885 29.94V31H242.485V30.16C242.858 30.16 243.118 30.0667 243.265 29.88C243.425 29.6933 243.518 29.4333 243.545 29.1C243.585 28.7667 243.605 28.38 243.605 27.94V25.06C243.591 24.0067 243.418 23.2333 243.085 22.74C242.751 22.2467 242.245 22 241.565 22C241.178 22 240.798 22.0867 240.425 22.26C240.051 22.42 239.718 22.6267 239.425 22.88C239.491 23.1067 239.538 23.36 239.565 23.64C239.605 23.9067 239.625 24.1867 239.625 24.48C239.611 25.1467 239.605 25.82 239.605 26.5C239.605 27.1667 239.605 27.84 239.605 28.52C239.605 28.76 239.598 29.0067 239.585 29.26C239.571 29.5 239.551 29.7467 239.525 30C239.738 29.9867 239.951 29.98 240.165 29.98C240.391 29.9667 240.598 29.9533 240.785 29.94V31H236.345V30.16C236.745 30.16 237.018 30.0667 237.165 29.88C237.325 29.6933 237.418 29.4333 237.445 29.1C237.485 28.7667 237.505 28.38 237.505 27.94V25.04C237.518 23.9867 237.365 23.2133 237.045 22.72C236.738 22.2133 236.245 21.9667 235.565 21.98C235.178 21.98 234.805 22.0667 234.445 22.24C234.085 22.4 233.771 22.6067 233.505 22.86C233.505 23.02 233.505 23.1867 233.505 23.36C233.518 23.5333 233.525 23.72 233.525 23.92V28.52C233.525 28.76 233.518 29.0067 233.505 29.26C233.491 29.5 233.471 29.7467 233.445 30C233.658 29.9867 233.871 29.98 234.085 29.98C234.298 29.9667 234.498 29.9533 234.685 29.94V31H230.245ZM248.311 31V30.16C248.711 30.16 248.991 30.0667 249.151 29.88C249.311 29.6933 249.405 29.4333 249.431 29.1C249.471 28.7667 249.491 28.38 249.491 27.94V23.78C249.491 23.5667 249.491 23.34 249.491 23.1C249.505 22.8467 249.531 22.6 249.571 22.36C249.345 22.3733 249.105 22.3867 248.851 22.4C248.598 22.4 248.365 22.4067 248.151 22.42V21.36C248.751 21.36 249.218 21.3333 249.551 21.28C249.898 21.2133 250.158 21.14 250.331 21.06C250.518 20.98 250.658 20.8933 250.751 20.8H251.471C251.498 20.9333 251.511 21.0933 251.511 21.28C251.525 21.4533 251.538 21.64 251.551 21.84C251.965 21.4933 252.431 21.2133 252.951 21C253.485 20.7867 253.998 20.68 254.491 20.68C255.145 20.68 255.685 20.8 256.111 21.04C256.551 21.2667 256.898 21.5933 257.151 22.02C257.618 21.6333 258.145 21.3133 258.731 21.06C259.318 20.8067 259.891 20.68 260.451 20.68C261.585 20.68 262.425 21.02 262.971 21.7C263.518 22.3667 263.785 23.4867 263.771 25.06L263.751 28.52C263.751 28.76 263.745 29.0067 263.731 29.26C263.731 29.5 263.711 29.7467 263.671 30C263.885 29.9867 264.105 29.98 264.331 29.98C264.558 29.9667 264.765 29.9533 264.951 29.94V31H260.551V30.16C260.925 30.16 261.185 30.0667 261.331 29.88C261.491 29.6933 261.585 29.4333 261.611 29.1C261.651 28.7667 261.671 28.38 261.671 27.94V25.06C261.658 24.0067 261.485 23.2333 261.151 22.74C260.818 22.2467 260.311 22 259.631 22C259.245 22 258.865 22.0867 258.491 22.26C258.118 22.42 257.785 22.6267 257.491 22.88C257.558 23.1067 257.605 23.36 257.631 23.64C257.671 23.9067 257.691 24.1867 257.691 24.48C257.678 25.1467 257.671 25.82 257.671 26.5C257.671 27.1667 257.671 27.84 257.671 28.52C257.671 28.76 257.665 29.0067 257.651 29.26C257.638 29.5 257.618 29.7467 257.591 30C257.805 29.9867 258.018 29.98 258.231 29.98C258.458 29.9667 258.665 29.9533 258.851 29.94V31H254.411V30.16C254.811 30.16 255.085 30.0667 255.231 29.88C255.391 29.6933 255.485 29.4333 255.511 29.1C255.551 28.7667 255.571 28.38 255.571 27.94V25.04C255.585 23.9867 255.431 23.2133 255.111 22.72C254.805 22.2133 254.311 21.9667 253.631 21.98C253.245 21.98 252.871 22.0667 252.511 22.24C252.151 22.4 251.838 22.6067 251.571 22.86C251.571 23.02 251.571 23.1867 251.571 23.36C251.585 23.5333 251.591 23.72 251.591 23.92V28.52C251.591 28.76 251.585 29.0067 251.571 29.26C251.558 29.5 251.538 29.7467 251.511 30C251.725 29.9867 251.938 29.98 252.151 29.98C252.365 29.9667 252.565 29.9533 252.751 29.94V31H248.311ZM270.539 31.32C269.792 31.32 269.172 31.18 268.679 30.9C268.199 30.62 267.839 30.16 267.599 29.52C267.359 28.8667 267.239 28.0067 267.239 26.94V23.8C267.239 23.5733 267.239 23.34 267.239 23.1C267.252 22.8467 267.279 22.6 267.319 22.36C267.092 22.3733 266.852 22.3867 266.599 22.4C266.345 22.4 266.119 22.4067 265.919 22.42V21.36H266.399C267.065 21.36 267.565 21.3 267.899 21.18C268.232 21.06 268.465 20.9333 268.599 20.8H269.359V26.9C269.359 27.9533 269.505 28.74 269.799 29.26C270.092 29.78 270.585 30.0333 271.279 30.02C271.732 30.02 272.165 29.8867 272.579 29.62C273.005 29.3533 273.352 29.04 273.619 28.68V23.94C273.619 23.6467 273.625 23.3733 273.639 23.12C273.652 22.8533 273.679 22.6 273.719 22.36C273.479 22.3733 273.232 22.3867 272.979 22.4C272.725 22.4 272.492 22.4067 272.279 22.42V21.36H272.859C273.445 21.36 273.905 21.3 274.239 21.18C274.572 21.06 274.812 20.9333 274.959 20.8H275.719L275.699 28.16C275.699 28.3733 275.692 28.6667 275.679 29.04C275.665 29.4 275.645 29.72 275.619 30C275.845 29.9867 276.079 29.9733 276.319 29.96C276.572 29.9467 276.805 29.94 277.019 29.94V31H273.839C273.812 30.7867 273.785 30.5867 273.759 30.4C273.745 30.2133 273.725 30.0333 273.699 29.86C273.285 30.2467 272.805 30.5867 272.259 30.88C271.712 31.1733 271.139 31.32 270.539 31.32ZM278.409 31V30.16C278.809 30.16 279.089 30.0667 279.249 29.88C279.409 29.6933 279.502 29.4333 279.529 29.1C279.569 28.7667 279.589 28.38 279.589 27.94L279.609 23.78C279.609 23.5667 279.609 23.34 279.609 23.1C279.622 22.8467 279.649 22.6 279.689 22.36C279.449 22.3733 279.202 22.3867 278.949 22.4C278.709 22.4 278.482 22.4067 278.269 22.42V21.36C278.869 21.36 279.335 21.3333 279.669 21.28C280.015 21.2133 280.275 21.14 280.449 21.06C280.635 20.98 280.775 20.8933 280.869 20.8H281.589C281.602 20.92 281.609 21.0333 281.609 21.14C281.622 21.2467 281.629 21.36 281.629 21.48C281.642 21.6 281.655 21.7533 281.669 21.94C281.962 21.7 282.282 21.4867 282.629 21.3C282.975 21.1133 283.335 20.9667 283.709 20.86C284.095 20.74 284.462 20.68 284.809 20.68C285.995 20.68 286.849 21.04 287.369 21.76C287.902 22.48 288.169 23.6067 288.169 25.14V28.52C288.169 28.76 288.162 29.0067 288.149 29.26C288.135 29.5 288.115 29.7467 288.089 30C288.302 29.9867 288.515 29.98 288.729 29.98C288.955 29.9667 289.162 29.9533 289.349 29.94V31H284.889V30.16C285.289 30.16 285.569 30.0667 285.729 29.88C285.889 29.6933 285.982 29.4333 286.009 29.1C286.049 28.7667 286.069 28.38 286.069 27.94V25.14C286.055 24.0867 285.882 23.2933 285.549 22.76C285.229 22.2267 284.709 21.9667 283.989 21.98C283.562 21.98 283.142 22.0867 282.729 22.3C282.315 22.5133 281.969 22.7733 281.689 23.08C281.689 23.2133 281.689 23.36 281.689 23.52C281.689 23.6667 281.689 23.82 281.689 23.98V28.52C281.689 28.76 281.682 29.0067 281.669 29.26C281.655 29.5 281.635 29.7467 281.609 30C281.822 29.9867 282.035 29.98 282.249 29.98C282.475 29.9667 282.682 29.9533 282.869 29.94V31H278.409ZM290.753 30.16C291.153 30.16 291.433 30.0667 291.593 29.88C291.753 29.6933 291.846 29.4333 291.873 29.1C291.913 28.7667 291.933 28.38 291.933 27.94V23.8C291.933 23.5733 291.939 23.3467 291.953 23.12C291.966 22.88 291.986 22.6267 292.013 22.36C291.786 22.3733 291.546 22.3867 291.293 22.4C291.039 22.4 290.806 22.4067 290.593 22.42V21.36C291.193 21.36 291.666 21.3333 292.013 21.28C292.373 21.2133 292.646 21.14 292.833 21.06C293.033 20.98 293.179 20.8933 293.273 20.8H294.033V28.52C294.033 28.76 294.026 29.0067 294.013 29.26C293.999 29.5 293.979 29.7467 293.953 30C294.166 29.9867 294.379 29.98 294.593 29.98C294.819 29.9667 295.026 29.9533 295.213 29.94V31H290.753V30.16ZM292.893 18.96C292.546 18.96 292.253 18.8333 292.013 18.58C291.773 18.3133 291.653 17.9933 291.653 17.62C291.653 17.2467 291.779 16.9333 292.033 16.68C292.286 16.4133 292.573 16.28 292.893 16.28C293.239 16.28 293.526 16.4133 293.753 16.68C293.993 16.9333 294.113 17.2467 294.113 17.62C294.113 17.9933 293.993 18.3133 293.753 18.58C293.526 18.8333 293.239 18.96 292.893 18.96ZM300.666 31.32C300.333 31.32 300 31.2733 299.666 31.18C299.333 31.1 299.02 30.9333 298.726 30.68C298.446 30.4133 298.226 30.0333 298.066 29.54C297.906 29.0467 297.826 28.3933 297.826 27.58L297.866 22.12H296.386V21C296.746 20.9867 297.113 20.8533 297.486 20.6C297.86 20.3467 298.186 20.0067 298.466 19.58C298.746 19.1533 298.94 18.6933 299.046 18.2H299.986V21H303.066V22.04L299.986 22.08L299.946 27.42C299.946 27.9267 299.986 28.3733 300.066 28.76C300.16 29.1333 300.306 29.4267 300.506 29.64C300.72 29.84 301.006 29.94 301.366 29.94C301.673 29.94 301.986 29.8467 302.306 29.66C302.64 29.4733 302.953 29.1667 303.246 28.74L303.926 29.34C303.606 29.8067 303.286 30.1733 302.966 30.44C302.646 30.7067 302.34 30.9 302.046 31.02C301.753 31.1533 301.486 31.2333 301.246 31.26C301.006 31.3 300.813 31.32 300.666 31.32ZM306.536 36.42C306.096 36.42 305.716 36.3 305.396 36.06C305.089 35.8333 304.936 35.5 304.936 35.06C304.936 34.78 305.022 34.5267 305.196 34.3C305.382 34.0733 305.622 33.96 305.916 33.96C306.236 33.9467 306.462 34.0467 306.596 34.26C306.742 34.4733 306.816 34.6933 306.816 34.92C306.816 34.96 306.816 35 306.816 35.04C306.816 35.08 306.809 35.1267 306.796 35.18C306.836 35.2067 306.896 35.2133 306.976 35.2C307.122 35.1867 307.282 35.1067 307.456 34.96C307.629 34.8133 307.789 34.6067 307.936 34.34C308.096 34.0467 308.276 33.64 308.476 33.12C308.676 32.6 308.896 32 309.136 31.32L305.996 24.76C305.636 24.0133 305.382 23.4333 305.236 23.02C305.102 22.5933 305.016 22.26 304.976 22.02L304.016 22.06V21H308.436V21.82H308.396C307.849 21.8733 307.549 22.08 307.496 22.44C307.456 22.8 307.582 23.2933 307.876 23.92L310.076 28.76C310.329 28.08 310.582 27.34 310.836 26.54C311.102 25.74 311.376 24.92 311.656 24.08C311.749 23.8267 311.842 23.56 311.936 23.28C312.042 22.9867 312.149 22.72 312.256 22.48C312.376 22.24 312.489 22.0733 312.596 21.98L311.296 22.06V21H314.576V21.82C314.109 21.98 313.742 22.2733 313.476 22.7C313.222 23.1267 312.976 23.6667 312.736 24.32L310.236 31.36C309.849 32.4667 309.489 33.3933 309.156 34.14C308.822 34.9 308.449 35.4667 308.036 35.84C307.636 36.2267 307.136 36.42 306.536 36.42Z" fill="#003F06"/>
</svg>
